# xmcd CD database file
#
# Track frame offsets:
#	150
#	34247
#	50655
#	82247
#	107017
#	128665
#	158647
#
# Disc length: 2806 seconds
#
# Revision: 0
# Processed by: cddbd v1.5.2PL0 Copyright (c) Steve Scherf et al.
# Submitted via: CDex 1.51
#
DISCID=570af407
DTITLE=Fredrik Ljungkvist and Yun Kan 5 - Badaling
DYEAR=2006
DGENRE=Jazz
TTITLE0=Badaling
TTITLE1=Folkhemmet
TTITLE2=Oslo
TTITLE3=Kun Lun
TTITLE4=Ray battle
TTITLE5=Altro?
TTITLE6=Kopi Luwak
EXTD=YEAR: 2006
EXTT0=
EXTT1=
EXTT2=
EXTT3=
EXTT4=
EXTT5=
EXTT6=
PLAYORDER=
